<svg width="215" height="215" viewBox="0 0 215 215" fill="none" xmlns="http://www.w3.org/2000/svg">
<path d="M140.57 85.5472C140.146 84.8755 139.703 84.2101 139.234 83.5559C139.097 83.3645 138.956 83.1767 138.816 82.9883L193.554 43.8006L195.359 46.3225L140.57 85.5472ZM142.493 88.9397C142.064 88.0899 141.602 87.2509 141.108 86.423L199.707 53.1065L201.238 55.8015L142.599 89.1421C142.565 89.0742 142.528 89.0074 142.493 88.9397ZM186.468 35.2006L188.526 37.52L138.196 82.1746C137.554 81.3533 136.887 80.5632 136.195 79.8044L186.468 35.2006ZM178.579 27.3886L180.865 29.4839L135.467 79.026C134.747 78.2759 134.002 77.5588 133.235 76.8744L178.579 27.3886ZM144.314 92.9873C143.945 92.0275 143.537 91.0771 143.09 90.1382L204.909 63.1292L206.15 65.9707L144.314 92.9873ZM145.606 96.945C145.337 95.9514 145.03 94.9643 144.682 93.9861L209.011 73.5774L209.948 76.5337L145.606 96.945ZM169.66 20.2628L172.155 22.1023L132.345 76.1006C131.55 75.4317 130.733 74.7968 129.896 74.1966L169.66 20.2628ZM146.483 101.011C146.317 99.9933 146.113 98.9797 145.869 97.972L212 84.3969L212.623 87.4335L146.483 101.011ZM160.199 14.2148L162.873 15.7844L128.977 73.5579C128.117 72.9769 127.238 72.432 126.343 71.9222L160.199 14.2148ZM146.941 105.149C146.88 104.12 146.78 103.091 146.64 102.064L213.834 95.4747L214.137 98.561L146.941 105.149ZM149.3 8.82889L152.135 10.0842L125.046 71.2147C124.127 70.7353 123.193 70.291 122.244 69.8851L149.3 8.82889ZM146.975 109.312C147.019 108.28 147.024 107.246 146.99 106.211L214.501 106.682L214.479 109.782L146.975 109.312ZM137.898 4.73212L140.856 5.65868L120.9 69.3405C119.934 68.9674 118.955 68.6317 117.966 68.334L137.898 4.73212ZM146.582 113.454C146.732 112.432 146.844 111.404 146.915 110.372L214.004 117.896L213.659 120.977L146.582 113.454ZM128.274 2.00502L131.308 2.64451L117.494 68.1936C116.499 67.9073 115.495 67.6603 114.482 67.4507L128.274 2.00502ZM145.769 117.545C146.022 116.542 146.237 115.53 146.413 114.511L212.33 129.004L211.663 132.032L145.769 117.545ZM117.004 0.21058L120.089 0.529428L113.197 67.2065C112.178 67.0294 111.153 66.8899 110.123 66.7906L117.004 0.21058ZM144.485 121.698C144.844 120.727 145.163 119.742 145.446 118.749L209.698 140.122L208.719 143.065L144.485 121.698ZM105.499 0.00526649L108.6 -1.18412e-05L108.715 66.6801C107.684 66.6166 106.65 66.5931 105.615 66.6084L105.499 0.00526649ZM142.833 125.546C143.29 124.616 143.711 123.672 144.094 122.714L205.987 150.789L204.706 153.612L142.833 125.546ZM94.0629 0.647783L97.146 0.318983L104.234 66.6506C103.203 66.7009 102.172 66.79 101.144 66.9195L94.0629 0.647783ZM140.767 129.248C141.319 128.37 141.835 127.475 142.316 126.563L200.317 160.591L198.748 163.265L140.767 129.248ZM83.423 2.27675L86.455 1.62662L100.471 67.011C99.4495 67.1571 98.4314 67.3422 97.4186 67.5675L83.423 2.27675ZM143.075 90.1454C142.92 89.8106 142.76 89.4773 142.595 89.1455L142.599 89.1421C142.768 89.4726 142.932 89.8046 143.09 90.1382L143.075 90.1454ZM144.627 94.0042C144.512 93.6708 144.394 93.3385 144.27 93.0072L144.314 92.9873C144.442 93.319 144.564 93.6523 144.682 93.9861L144.627 94.0042ZM145.772 97.9931C145.693 97.6522 145.61 97.312 145.522 96.9725L145.606 96.945C145.698 97.2866 145.786 97.6289 145.869 97.972L145.772 97.9931ZM146.502 102.078C146.458 101.731 146.41 101.384 146.357 101.037L146.483 101.011C146.54 101.361 146.593 101.713 146.64 102.064L146.502 102.078ZM138.291 132.758C138.935 131.943 139.542 131.105 140.116 130.25L194.216 170.136L192.376 172.631L138.291 132.758ZM72.8191 6.30124L75.7664 5.33822L96.2007 67.8594C95.2022 68.1143 94.2105 68.4093 93.2267 68.743L72.8191 6.30124ZM146.806 106.21C146.799 105.862 146.787 105.515 146.771 105.167L146.941 105.149C146.962 105.503 146.978 105.857 146.99 106.211L146.806 106.21ZM146.689 110.348C146.716 110.002 146.739 109.657 146.758 109.311L146.975 109.312C146.959 109.666 146.94 110.019 146.915 110.372L146.689 110.348ZM146.154 114.455C146.216 114.113 146.274 113.77 146.328 113.426L146.582 113.454C146.531 113.807 146.474 114.16 146.413 114.511L146.154 114.455ZM145.158 118.654C145.272 118.265 145.381 117.874 145.483 117.483L145.769 117.545C145.668 117.947 145.56 118.349 145.446 118.749L145.158 118.654ZM136.104 135.308C136.813 134.548 137.49 133.765 138.132 132.962L188.207 177.891L186.136 180.198L136.104 135.308ZM61.856 10.1109L64.6869 8.84443L91.7209 69.2854C90.7611 69.6542 89.8104 70.0611 88.8715 70.5075L61.856 10.1109ZM143.782 122.573C143.915 122.248 144.043 121.921 144.167 121.593L144.485 121.698C144.36 122.038 144.229 122.377 144.094 122.714L143.782 122.573ZM141.991 126.372C142.165 126.048 142.333 125.722 142.498 125.394L142.833 125.546C142.666 125.887 142.493 126.226 142.316 126.563L141.991 126.372ZM139.789 130.009C140.006 129.691 140.216 129.37 140.423 129.047L140.767 129.248C140.556 129.585 140.339 129.919 140.116 130.25L139.789 130.009ZM132.986 138.308C133.773 137.626 134.528 136.92 135.252 136.191L181.335 187.192L179.035 189.27L132.986 138.308ZM52.028 15.9507L54.7106 14.3965L87.6018 71.1414C86.6911 71.6142 85.7923 72.1242 84.9076 72.6727L52.028 15.9507ZM137.946 132.505L138.291 132.758C138.238 132.826 138.186 132.894 138.132 132.962L137.809 132.673C137.854 132.617 137.901 132.561 137.946 132.505ZM134.944 135.852C135.223 135.573 135.497 135.292 135.767 135.007L136.104 135.308C135.826 135.606 135.54 135.9 135.252 136.191L134.944 135.852ZM131.604 138.838C131.965 138.55 132.319 138.254 132.667 137.956L132.986 138.308C132.625 138.62 132.258 138.927 131.883 139.228L131.604 138.838ZM130.011 140.654C130.653 140.194 131.276 139.717 131.883 139.228L170.941 193.785L168.42 195.59L129.397 141.082C129.602 140.941 129.808 140.799 130.011 140.654ZM46.0865 19.3864L84.4425 72.9624C83.8326 73.3519 83.229 73.7591 82.6337 74.1853C82.3842 74.3639 82.1383 74.5461 81.8941 74.7292L43.5654 21.1913L46.0865 19.3864ZM128.247 141.256C128.536 141.069 128.824 140.877 129.11 140.681L129.397 141.082C129.099 141.288 128.799 141.49 128.497 141.686L128.247 141.256ZM125.834 143.279C126.735 142.785 127.623 142.255 128.497 141.686L162.275 199.958L159.593 201.513L125.834 143.279ZM37.5404 28.0485L80.6201 75.7278C79.8122 76.385 79.0355 77.0672 78.2908 77.7737L35.24 30.1265L37.5404 28.0485ZM124.806 143.249C125.065 143.115 125.323 142.98 125.579 142.84L125.834 143.279C125.563 143.428 125.289 143.573 125.015 143.715L124.806 143.249ZM122.21 145.037C123.156 144.635 124.092 144.194 125.015 143.715L152.265 204.633L149.435 205.899L122.21 145.037ZM28.5655 34.6504L77.4926 78.5529C76.7578 79.2895 76.0557 80.0492 75.3873 80.8312L26.4944 36.9581L28.5655 34.6504ZM121.356 144.828C121.57 144.741 121.784 144.654 121.997 144.564L122.21 145.037C121.98 145.134 121.749 145.23 121.518 145.323L121.356 144.828ZM118.6 146.371C119.581 146.06 120.555 145.711 121.518 145.323L142.4 209.209L139.453 210.172L118.6 146.371ZM21.5803 42.8555L74.5138 81.8841C73.8662 82.696 73.2541 83.5297 72.6759 84.3817L19.7399 45.3513L21.5803 42.8555ZM117.441 146.172C117.774 146.077 118.106 145.977 118.436 145.873L118.6 146.371C118.251 146.481 117.902 146.587 117.552 146.687L117.441 146.172ZM114.539 147.428C115.549 147.221 116.554 146.974 117.552 146.687L131.413 211.346L128.381 211.996L114.539 147.428ZM15.3225 52.0532L72.0487 85.3376C71.4911 86.2116 70.969 87.1038 70.4832 88.0125L13.7542 54.7277L15.3225 52.0532ZM112.842 147.205C113.372 147.118 113.901 147.021 114.429 146.913L114.539 147.428C113.994 147.54 113.447 147.641 112.898 147.73L112.842 147.205ZM109.82 148.111C110.848 148.023 111.875 147.896 112.898 147.73L119.937 213.589L116.853 213.918L109.82 148.111ZM10.6602 62.1828L69.9364 89.0741C69.4751 90.0018 69.0496 90.9444 68.6621 91.9008L9.38013 65.0065L10.6602 62.1828ZM108.856 147.658C109.159 147.638 109.461 147.616 109.764 147.59L109.82 148.111C109.499 148.138 109.178 148.161 108.857 148.181L108.856 147.658ZM105.756 148.254C106.789 148.269 107.823 148.244 108.857 148.181L108.972 214.483L105.872 214.489L105.756 148.254ZM6.17986 72.4188L68.2123 93.0575C67.8532 94.0282 67.5321 95.0113 67.2485 96.0043L5.20129 75.3617L6.17986 72.4188ZM104.877 147.715C105.169 147.725 105.462 147.732 105.755 147.736L105.756 148.254C105.445 148.249 105.134 148.241 104.823 148.229L104.877 147.715ZM101.73 147.995C102.757 148.113 103.789 148.19 104.823 148.229L98.0396 213.877L94.9552 213.558L101.73 147.995ZM2.84978 82.9446L66.9678 97.0448C66.7102 98.0464 66.4902 99.0568 66.3094 100.074L2.18327 85.9728L2.84978 82.9446ZM100.808 147.37C101.133 147.414 101.457 147.453 101.783 147.49L101.73 147.995C101.388 147.956 101.046 147.913 100.704 147.865L100.808 147.37ZM97.6496 147.32C98.6606 147.54 99.6795 147.722 100.704 147.865L87.0787 212.519L84.0447 211.88L97.6496 147.32ZM0.856659 93.9858L66.1088 101.307C65.9593 102.33 65.8476 103.359 65.7761 104.391L0.510335 97.067L0.856659 93.9858ZM96.6881 146.596C97.0414 146.681 97.3956 146.763 97.7509 146.839L97.6496 147.32C97.2793 147.239 96.9106 147.151 96.5426 147.06L96.6881 146.596ZM93.563 146.202C94.5459 146.526 95.5397 146.812 96.5426 147.06L76.7157 210.327L73.7567 209.4L93.563 146.202ZM65.6954 105.644C65.7139 105.259 65.7402 104.876 65.7698 104.493C65.7442 104.876 65.7248 105.26 65.71 105.644L65.6954 105.644ZM0.0220935 105.182L65.6954 105.644C65.6456 106.675 65.6342 107.709 65.663 108.744L1.31798e-05 108.284L0.0220935 105.182ZM92.2396 145.245C92.7248 145.423 93.2131 145.592 93.7041 145.751L93.563 146.202C93.0558 146.034 92.5509 145.859 92.05 145.672L92.2396 145.245ZM65.7192 109.998C65.6946 109.58 65.6746 109.162 65.663 108.744L65.7104 108.745C65.7262 109.161 65.7473 109.577 65.7759 109.994L65.7192 109.998ZM89.1895 144.475C90.1294 144.91 91.0831 145.31 92.05 145.672L65.2374 206.177L62.402 204.921L89.1895 144.475ZM0.373986 116.404L65.7192 109.998C65.7796 111.028 65.8794 112.058 66.0188 113.084L0.676564 119.489L0.373986 116.404ZM87.9973 143.406C88.4517 143.635 88.9086 143.857 89.3702 144.068L89.1895 144.475C88.7141 144.254 88.2415 144.026 87.7739 143.787L87.9973 143.406ZM66.2068 114.325C66.1376 113.912 66.075 113.498 66.0188 113.084L66.1055 113.076C66.1655 113.487 66.233 113.896 66.3059 114.305L66.2068 114.325ZM85.0678 142.27C85.9526 142.812 86.8555 143.318 87.7739 143.787L54.3358 200.779L51.6608 199.209L85.0678 142.27ZM1.89699 127.523L66.2068 114.325C66.3769 115.341 66.585 116.354 66.834 117.36L2.51965 130.56L1.89699 127.523ZM84.282 141.289C84.6118 141.501 84.9454 141.706 85.2804 141.908L85.0678 142.27C84.7219 142.059 84.3796 141.84 84.0393 141.617L84.282 141.289ZM67.1551 118.578C67.0414 118.173 66.9347 117.767 66.834 117.36L66.9664 117.334C67.0702 117.735 67.181 118.135 67.2975 118.534L67.1551 118.578ZM81.5125 139.821C82.3348 140.454 83.1777 141.053 84.0393 141.617L44.8746 194.738L42.3794 192.899L81.5125 139.821ZM4.56736 138.43L67.1551 118.578C67.4333 119.569 67.7514 120.553 68.1079 121.528L5.50383 141.385L4.56736 138.43ZM80.7541 138.736C81.08 139 81.4079 139.26 81.7407 139.512L81.5125 139.821C81.1711 139.558 80.8338 139.288 80.4997 139.013L80.7541 138.736ZM68.558 122.699C68.402 122.31 68.2512 121.92 68.1079 121.528L68.2785 121.475C68.4236 121.859 68.5739 122.243 68.7314 122.624L68.558 122.699ZM78.1817 136.953C78.9316 137.673 79.7053 138.36 80.4997 139.013L35.9606 187.617L33.6742 185.522L78.1817 136.953ZM8.36295 148.996L68.558 122.699C68.9411 123.653 69.3626 124.598 69.8229 125.531L9.60456 151.838L8.36295 148.996ZM77.6209 135.918C77.8841 136.181 78.1499 136.44 78.4191 136.694L78.1817 136.953C77.9059 136.688 77.6336 136.419 77.3642 136.145L77.6209 135.918ZM70.3856 126.631C70.1917 126.266 70.0046 125.899 69.8229 125.531L70.0235 125.444C70.2054 125.803 70.3936 126.161 70.5872 126.516L70.3856 126.631ZM75.2743 133.853C75.9462 134.649 76.6438 135.413 77.3642 136.145L28.0846 179.865L26.0273 177.545L75.2743 133.853ZM74.7169 132.692C74.9774 133.015 75.2427 133.332 75.5112 133.644L75.2743 133.853C75.0018 133.531 74.7332 133.203 74.4691 132.87L74.7169 132.692ZM13.25 159.112L70.3856 126.631C70.8674 127.537 71.3866 128.431 71.9437 129.31L14.7824 161.808L13.25 159.112ZM72.6343 130.369C72.3973 130.019 72.1684 129.665 71.9437 129.31L72.1716 129.181C72.3947 129.526 72.6249 129.867 72.8598 130.207L72.6343 130.369ZM72.6343 130.369C72.8359 130.667 73.0424 130.962 73.253 131.257C73.6472 131.807 74.0532 132.345 74.4691 132.87L20.9614 171.177L19.1559 168.655L72.6343 130.369Z" fill="#3B1314"/>
</svg>
