<svg width="3483" height="3464" viewBox="0 0 3483 3464" fill="none" xmlns="http://www.w3.org/2000/svg">
<path d="M1712.77 1248.02L1728.27 -4.55388e-05L1778.34 0.621811L1762.82 1249.66L1757.9 1291.6C1754.16 1291.47 1750.41 1291.37 1746.65 1291.33C1736.63 1291.2 1726.68 1291.4 1716.82 1291.9L1712.77 1248.02ZM1804.54 1295.62C1790.65 1293.72 1776.56 1292.43 1762.3 1291.78L1762.82 1249.66L1908.4 8.92541L1958.13 14.7593L1811.42 1265.14L1804.54 1295.62ZM1663.05 1254.15L1548.32 9.98831L1598.17 5.39136L1712.77 1248.02L1712.22 1292.15C1698.45 1292.99 1684.84 1294.42 1671.42 1296.43L1663.05 1254.15ZM1616.37 1276.13L1371.43 37.9381L1420.55 28.2241L1663.05 1254.15L1667.02 1297.1C1652.98 1299.34 1639.15 1302.2 1625.56 1305.66L1616.37 1276.13ZM1850.11 1304.18C1836.24 1300.85 1822.12 1298.13 1807.79 1296.07L1811.42 1265.14L2088.46 37.0692L2137.31 48.0849L1861.58 1270.3L1850.11 1304.18ZM1894.91 1317.36C1881.46 1312.65 1867.73 1308.54 1853.74 1305.06L1861.58 1270.3L2263.57 83.5826L2310.99 99.6435L1908.51 1287.83L1894.91 1317.36ZM1566.19 1283.41L1193.43 85.8549L1241.23 70.9778L1616.37 1276.13L1622.37 1306.49C1608.52 1310.12 1594.93 1314.37 1581.61 1319.22L1566.19 1283.41ZM1534.71 1336.9L1024.27 151.136L1070.26 131.342L1566.19 1283.41L1577.78 1320.63C1563.43 1325.99 1549.41 1332.04 1535.77 1338.74L1534.71 1336.9ZM1938.25 1335.04C1925.2 1328.93 1911.81 1323.4 1898.12 1318.49L1908.51 1287.83L2432.96 148.291L2478.45 169.22L1954.41 1307.84L1938.25 1335.04ZM1979.86 1357.16C1967.36 1349.68 1954.47 1342.76 1941.24 1336.45L1954.41 1307.84L2594.62 230.213L2637.66 255.781L1997.01 1334.15L1979.86 1357.16ZM1487.99 1356.06L849.877 241.441L893.33 216.569L1534.71 1336.9L1535.55 1338.85C1520.87 1346.07 1506.63 1354.03 1492.86 1362.7L1487.99 1356.06ZM2019.2 1383.51C2007.37 1374.68 1995.1 1366.4 1982.43 1358.71L1997.01 1334.15L2746.93 328.592L2787.06 358.519L2037.2 1364.02L2019.2 1383.51ZM1372.86 1283.86L687.667 350.788L728.025 321.158L1487.99 1356.06L1492.07 1363.2C1481.83 1369.68 1471.85 1376.55 1462.17 1383.78L1372.86 1283.86ZM2055.74 1413.77C2044.77 1403.71 2033.32 1394.16 2021.42 1385.18L2037.2 1364.02L2888.08 442.389L2924.87 476.348L2075.09 1396.78L2055.74 1413.77ZM1413.84 1404.85L560.125 449.718L597.456 416.357L1372.86 1283.86L1451.98 1391.62C1451.15 1392.28 1450.32 1392.94 1449.49 1393.61C1440.96 1400.33 1432.67 1407.35 1424.64 1414.64L1413.84 1404.85ZM2090.83 1449.59C2080.37 1437.71 2069.32 1426.36 2057.72 1415.6L2075.09 1396.78L3016.45 570.2L3049.49 607.817L2090.83 1449.59ZM429.169 579.315L462.809 542.235L1413.84 1404.85L1423.51 1415.66C1411.55 1426.6 1400.15 1438.14 1389.38 1450.25L429.169 579.315ZM2121.27 1488.08C2111.94 1474.92 2101.95 1462.27 2091.34 1450.18L3135.91 710.973L3164.84 751.838L2136.64 1479.46L2121.27 1488.08ZM1357.31 1488.89L316.647 726.99L346.225 686.597L1389.34 1450.29C1378.27 1462.74 1367.86 1475.79 1358.15 1489.38L1357.31 1488.89ZM2147.69 1529.87C2139.91 1515.99 2131.44 1502.55 2122.33 1489.58L2136.64 1479.46L3239.17 861.1L3263.66 904.765L2153.71 1527.28L2147.69 1529.87ZM1235.85 1476.11L215.305 881.914L240.498 838.651L1357.31 1488.89L1358.09 1489.46C1350.67 1499.87 1343.66 1510.6 1337.09 1521.63L1235.85 1476.11ZM2169.79 1574.86C2163.31 1559.64 2156.04 1544.82 2148.02 1530.47L2153.71 1527.28L3312.55 1028.54L3332.35 1074.52L2169.79 1574.86ZM1293.8 1557.05L134.939 1036.01L155.473 990.349L1235.85 1476.11L1331.28 1531.66C1325.36 1542.18 1319.85 1552.95 1314.75 1563.95L1293.8 1557.05ZM2183.11 1610.02C2179.19 1598.25 2174.82 1586.69 2170 1575.36L3378.44 1199.28L3393.32 1247.08L2316.65 1582.15L2183.11 1610.02ZM85.9993 1212.42L101.648 1164.86L1293.8 1557.05L1313.78 1566.04C1307.17 1580.49 1301.28 1595.33 1296.15 1610.53L85.9993 1212.42ZM1762.27 1293.83C1760.74 1293.76 1759.2 1293.69 1757.66 1293.63L1757.9 1291.6C1759.37 1291.66 1760.84 1291.72 1762.3 1291.78L1762.27 1293.83ZM1712.22 1292.15C1713.75 1292.06 1715.28 1291.97 1716.82 1291.9L1716.99 1293.79C1715.39 1293.87 1713.79 1293.95 1712.2 1294.04L1712.22 1292.15ZM1807.54 1298.21C1806.39 1298.04 1805.23 1297.88 1804.07 1297.72L1804.54 1295.62C1805.63 1295.77 1806.71 1295.92 1807.79 1296.07L1807.54 1298.21ZM1667.02 1297.1C1668.48 1296.87 1669.95 1296.65 1671.42 1296.43L1671.75 1298.1C1670.22 1298.32 1668.7 1298.55 1667.17 1298.78L1667.02 1297.1ZM1853.25 1307.22C1851.97 1306.9 1850.68 1306.59 1849.4 1306.28L1850.11 1304.18C1851.32 1304.47 1852.53 1304.76 1853.74 1305.06L1853.25 1307.22ZM1622.37 1306.49C1623.43 1306.21 1624.5 1305.94 1625.56 1305.66L1625.99 1307.05C1624.88 1307.33 1623.76 1307.61 1622.65 1307.89L1622.37 1306.49ZM1897.41 1320.6C1896.27 1320.19 1895.12 1319.79 1893.98 1319.39L1894.91 1317.36C1895.98 1317.74 1897.05 1318.11 1898.12 1318.49L1897.41 1320.6ZM1577.78 1320.63C1579.05 1320.15 1580.33 1319.68 1581.61 1319.22L1582.07 1320.29C1580.75 1320.76 1579.43 1321.23 1578.12 1321.71L1577.78 1320.63ZM2196.35 1658.4C2193.72 1646.24 2190.62 1634.27 2187.06 1622.48L2316.65 1582.15L3421.86 1351.52L3432.09 1400.53L2196.35 1658.4ZM1940.33 1338.43C1939.27 1337.93 1938.2 1337.42 1937.13 1336.93L1938.25 1335.04C1939.25 1335.51 1940.25 1335.98 1941.24 1336.45L1940.33 1338.43ZM1535.55 1338.85C1535.62 1338.81 1535.69 1338.78 1535.77 1338.74L1536.17 1339.45C1536.07 1339.5 1535.97 1339.55 1535.87 1339.59L1535.55 1338.85ZM1981.36 1360.51C1980.44 1359.96 1979.52 1359.41 1978.59 1358.86L1979.86 1357.16C1980.72 1357.67 1981.57 1358.19 1982.43 1358.71L1981.36 1360.51ZM30.7365 1391.35L41.3275 1342.42L1295.08 1613.73C1289.89 1629.51 1285.51 1645.66 1282.01 1662.13L30.7365 1391.35ZM1492.07 1363.2C1492.34 1363.03 1492.6 1362.87 1492.86 1362.7L1493.12 1363.05C1492.84 1363.22 1492.56 1363.4 1492.29 1363.57L1492.07 1363.2ZM2020.24 1386.76C2019.44 1386.16 2018.65 1385.57 2017.85 1384.98L2019.2 1383.51C2019.94 1384.06 2020.68 1384.62 2021.42 1385.18L2020.24 1386.76ZM1451.98 1391.62C1455.34 1388.96 1458.74 1386.35 1462.17 1383.78L1462.26 1383.89C1458.8 1386.42 1455.38 1389.01 1452 1391.64L1451.98 1391.62ZM2056.49 1416.93C2055.78 1416.28 2055.07 1415.63 2054.36 1414.98L2055.74 1413.77C2056.4 1414.38 2057.06 1414.99 2057.72 1415.6L2056.49 1416.93ZM2089.6 1450.67L2090.83 1449.59C2091 1449.79 2091.17 1449.98 2091.34 1450.18L2090.01 1451.12C2089.87 1450.97 2089.74 1450.82 2089.6 1450.67ZM2121.18 1490.39C2120.8 1489.85 2120.41 1489.31 2120.03 1488.77L2121.27 1488.08C2121.62 1488.58 2121.98 1489.08 2122.33 1489.58L2121.18 1490.39ZM2204.43 1709.37C2202.72 1692.58 2200.11 1676.06 2196.66 1659.84L3477.2 1530.04L3482.25 1579.85L2204.43 1709.37ZM2146.6 1530.34L2147.69 1529.87C2147.8 1530.07 2147.91 1530.27 2148.02 1530.47L2147 1531.05C2146.87 1530.81 2146.73 1530.58 2146.6 1530.34ZM12.5398 1575.03L17.9572 1525.26L1281.86 1662.81C1279.22 1675.37 1277.07 1688.11 1275.46 1701.03L1156.75 1699.55L12.5398 1575.03ZM2169.12 1575.63C2169.06 1575.5 2169 1575.37 2168.94 1575.23L2169.79 1574.86C2169.86 1575.03 2169.93 1575.19 2170 1575.36L2169.12 1575.63ZM2186.42 1622.68C2185.13 1618.49 2183.79 1614.32 2182.38 1610.17L2183.11 1610.02C2184.48 1614.15 2185.8 1618.3 2187.06 1622.48L2186.42 1622.68ZM2196.18 1659.89C2196.08 1659.42 2195.97 1658.96 2195.87 1658.5L2196.35 1658.4C2196.45 1658.88 2196.56 1659.36 2196.66 1659.84L2196.18 1659.89ZM2204.52 1712.57C2204.41 1711.51 2204.3 1710.45 2204.19 1709.39L2204.43 1709.37C2204.54 1710.43 2204.65 1711.5 2204.75 1712.57L2204.52 1712.57ZM2206.83 1762.66C2207.02 1745.75 2206.32 1729.04 2204.75 1712.57L3463.7 1728.21L3463.08 1778.27L2206.83 1762.66ZM0.621759 1685.19L1156.75 1699.55L1274.18 1712.33C1272.9 1725.09 1272.14 1738 1271.91 1751.05L-3.64434e-05 1735.25L0.621759 1685.19ZM2206.81 1763.47C2206.82 1763.2 2206.82 1762.93 2206.82 1762.66L2206.83 1762.66C2206.83 1762.8 2206.83 1762.94 2206.82 1763.08C2206.82 1763.21 2206.82 1763.34 2206.82 1763.47L2206.81 1763.47ZM2232.82 1816.66L2204.05 1810.44C2205.68 1795.52 2206.61 1780.39 2206.8 1765.08C2206.8 1764.74 2206.81 1764.4 2206.81 1764.06C2206.81 1763.87 2206.82 1763.67 2206.82 1763.47L3460.97 1899.96L3455.55 1949.73L2232.82 1816.66ZM31.5132 1879.29L1271.87 1753.57C1271.68 1769.17 1272.26 1784.6 1273.58 1799.82L1237.21 1807.41L36.5629 1929.1L31.5132 1879.29ZM2249.82 1871.56L2197.12 1854.23C2199.9 1840.85 2202.1 1827.27 2203.7 1813.49L2232.82 1816.66L3426.31 2074.93L3415.72 2123.86L2249.82 1871.56ZM31.5654 2059L1237.21 1807.41L1273.93 1803.69C1275.4 1819.19 1277.64 1834.47 1280.59 1849.49L41.7935 2108L31.5654 2059ZM2185.66 1903.16L2184.33 1902.56C2188.84 1888.62 2192.71 1874.38 2195.91 1859.9L2249.82 1871.56L3391.51 2247.15L3375.86 2294.71L2185.66 1903.16ZM71.5649 2228.41L1281.1 1852C1284.25 1867.55 1288.18 1882.83 1292.84 1897.79L1267.78 1908.57L86.444 2276.21L71.5649 2228.41ZM2166.32 1949.35C2173.11 1934.22 2179.11 1918.65 2184.28 1902.71L2185.66 1903.16L3314.17 2410.56L3293.64 2456.22L2166.32 1949.35ZM131.378 2397.66L1267.78 1908.57L1293.7 1900.5C1298.35 1915.07 1303.69 1929.33 1309.7 1943.25L1295.99 1950.94L151.173 2443.64L131.378 2397.66ZM218.551 2555.21L1295.99 1950.94L1310.35 1944.75C1316.77 1959.47 1323.93 1973.8 1331.78 1987.69L1327.89 1990.44L243.044 2598.88L218.551 2555.21ZM2157.72 2012.84L2139.87 1999.78C2148.1 1986.19 2155.65 1972.14 2162.48 1957.69L3233.43 2581.22L3208.23 2624.48L2157.72 2012.84ZM308.941 2711.52L1327.89 1990.44L1332.03 1988.12C1339.69 2001.64 1348 2014.74 1356.94 2027.37L1334.35 2047.2L337.866 2752.38L308.941 2711.52ZM2131.03 2055.35L2113.18 2039.16C2122.26 2027.13 2130.77 2014.65 2138.67 2001.75L2157.72 2012.84L3140.59 2732.44L3111.01 2772.83L2131.03 2055.35ZM414.1 2855.25L1334.35 2047.2L1358.76 2029.93C1367.9 2042.68 1377.67 2054.95 1388.03 2066.7L447.137 2892.87L414.1 2855.25ZM2087.81 2083.74L2081.57 2076.76C2092.18 2065.42 2102.22 2053.53 2111.66 2041.17L2131.03 2055.35L3028 2868.93L2994.36 2906.01L2087.81 2083.74ZM538.868 2986.92L1388.23 2066.94C1399.29 2079.47 1411.02 2091.41 1423.36 2102.7L575.657 3020.88L538.868 2986.92ZM2045.47 2111.5C2057.87 2100.78 2069.7 2089.42 2080.9 2077.48L2087.81 2083.74L2905.37 2998.41L2868.03 3031.77L2045.47 2111.5ZM676.584 3104.72L1423.66 2102.97C1435.99 2114.23 1448.92 2124.84 1462.42 2134.74L716.721 3134.64L676.584 3104.72ZM2004.06 2143.43C2017.86 2133.97 2031.12 2123.79 2043.79 2112.94L2777.81 3112.51L2737.45 3142.14L2004.06 2143.43ZM825.829 3207.52L1462.93 2135.12C1476.39 2144.97 1490.39 2154.12 1504.89 2162.52L868.875 3233.09L825.829 3207.52ZM1955.46 2172.61C1970.31 2164.87 1984.7 2156.37 1998.57 2147.14L2613.91 3221.99L2570.46 3246.86L1955.46 2172.61ZM985.112 3294.16L1505.72 2162.99C1520.15 2171.31 1535.06 2178.87 1550.41 2185.64L1030.59 3315.09L985.112 3294.16ZM1904.29 2195.45C1919.99 2189.54 1935.29 2182.82 1950.14 2175.33L2439.53 3312.2L2393.54 3332L1904.29 2195.45ZM1152.51 3363.54L1551.37 2186.07C1566.6 2192.74 1582.25 2198.62 1598.27 2203.67L1199.94 3379.61L1152.51 3363.54ZM1854.91 2210.94C1871.2 2206.81 1887.15 2201.83 1902.71 2196.04L2270.48 3377.52L2222.67 3392.4L1854.91 2210.94ZM1326.38 3415.19L1599.6 2204.09C1615.43 2209.02 1631.63 2213.14 1648.15 2216.4L1375.22 3426.21L1326.38 3415.19ZM1803.27 2220.96C1819.95 2218.69 1836.36 2215.54 1852.45 2211.55L2092.56 3425.41L2043.45 3435.12L1803.27 2220.96ZM1504.84 3448.33L1649.36 2216.64C1665.61 2219.79 1682.16 2222.11 1698.96 2223.55L1554.57 3454.17L1504.84 3448.33ZM1752.6 2225.09C1769.47 2224.63 1786.12 2223.27 1802.51 2221.07L1916.19 3453.76L1866.33 3458.36L1752.6 2225.09ZM1700.65 2223.69C1711.51 2224.58 1722.48 2225.1 1733.55 2225.24C1739.29 2225.31 1745.01 2225.27 1750.71 2225.14L1735.33 3463.35L1685.26 3462.73L1700.65 2223.69Z" fill="#D9D9D9"/>
</svg>
