<svg width="38" height="38" viewBox="0 0 38 38" fill="none" xmlns="http://www.w3.org/2000/svg">
<path d="M24.6776 15.0195C24.6031 14.9015 24.5259 14.7842 24.4437 14.6693C24.4195 14.6356 24.3929 14.6039 24.3683 14.5708L33.9802 7.68939L34.2974 8.13247L24.6776 15.0195ZM25.0208 15.6265C24.9439 15.4733 24.86 15.3227 24.771 15.1736L35.0599 9.3233L35.3294 9.79697L25.0349 15.6512C25.0306 15.6428 25.0252 15.6349 25.0208 15.6265ZM32.7364 6.1802L33.0974 6.58713L24.2611 14.4277C24.1486 14.2837 24.0311 14.1457 23.9098 14.0126L32.7364 6.1802ZM31.3509 4.80852L31.7526 5.17669L23.7828 13.8754C23.656 13.7434 23.5246 13.6178 23.3897 13.4974L31.3509 4.80852ZM25.3355 16.326C25.2834 16.1906 25.2247 16.0573 25.1633 15.9245C25.1618 15.9211 25.1601 15.9179 25.1586 15.9146C25.1451 15.8854 25.1324 15.8559 25.1186 15.8268L35.9738 11.0831L36.1916 11.5818L25.3355 16.326ZM25.5613 17.0207C25.5142 16.8463 25.4597 16.6734 25.3988 16.5017L36.6941 12.9178L36.8588 13.4365L25.5613 17.0207ZM29.7851 3.55748L30.2237 3.87998L23.2345 13.3611C23.0951 13.2439 22.951 13.1341 22.8044 13.0289L29.7851 3.55748ZM25.716 17.735C25.687 17.5564 25.6498 17.3788 25.6069 17.2018L37.2189 14.8169L37.328 15.3501L25.716 17.735ZM28.1242 2.49579L28.5938 2.77091L22.6434 12.9147C22.4922 12.8125 22.3367 12.7183 22.1792 12.6286L28.1242 2.49579ZM25.7953 18.4614C25.7847 18.2806 25.7672 18.1001 25.7428 17.92L37.5409 16.7614L37.594 17.3035L25.7953 18.4614ZM26.2111 1.54982L26.7087 1.77009L21.952 12.5042C21.791 12.4202 21.6278 12.3416 21.4615 12.2704L26.2111 1.54982ZM25.8012 19.191C25.809 19.0102 25.8109 18.829 25.805 18.6478L37.6575 18.7293L37.6542 19.2733L25.8012 19.191ZM24.2094 0.830657L24.7284 0.993569L21.2253 12.1753C21.0556 12.1097 20.8837 12.0513 20.7099 11.999L24.2094 0.830657ZM25.7317 19.9193C25.758 19.7395 25.7793 19.5591 25.7919 19.3777L37.5703 20.6978L37.51 21.2393L25.7317 19.9193ZM22.5192 0.352052L23.0522 0.464091L20.6265 11.9747C20.4516 11.9243 20.2754 11.8798 20.0974 11.843L22.5192 0.352052ZM25.5898 20.637C25.6342 20.4608 25.6722 20.2832 25.7032 20.1043L37.2768 22.6482L37.1601 23.1797L25.5898 20.637ZM20.5415 0.0372307L21.0824 0.0931811L19.8722 11.8001C19.6935 11.769 19.5137 11.7458 19.3332 11.7284L20.5415 0.0372307ZM25.3653 21.367C25.4283 21.1965 25.4826 21.0231 25.5323 20.8487L36.815 24.6001L36.6428 25.1162L25.3653 21.367ZM18.5219 0.00104071L19.0652 -8.21892e-08L19.0853 11.7076C18.9046 11.6965 18.7235 11.6927 18.5421 11.6954L18.5219 0.00104071ZM25.0759 22.0414C25.156 21.8783 25.2276 21.7117 25.2948 21.5436L36.1634 26.4731L35.9379 26.9684L25.0759 22.0414ZM16.514 0.11378L17.0549 0.0556401L18.2985 11.704C18.1174 11.7129 17.9362 11.7265 17.7556 11.7492L16.514 0.11378ZM24.7114 22.6915C24.8085 22.5372 24.899 22.3796 24.9834 22.2193L35.1674 28.1938L34.8922 28.6634L24.7114 22.6915ZM14.6455 0.399379L15.178 0.285962L17.6372 11.7667C17.4581 11.7924 17.2795 11.8234 17.1019 11.8629L14.6455 0.399379ZM25.0333 15.6524L25.0349 15.6512C25.0644 15.7091 25.0908 15.7684 25.1186 15.8268L25.117 15.8279C25.0898 15.7692 25.0623 15.7106 25.0333 15.6524ZM25.3278 16.3304L25.3355 16.326C25.3579 16.3842 25.378 16.4431 25.3988 16.5017L25.3905 16.5052C25.3704 16.4467 25.3494 16.3885 25.3278 16.3304ZM25.5471 17.026L25.5613 17.0207C25.5776 17.0809 25.5923 17.1413 25.6069 17.2018L25.5916 17.2056C25.5777 17.1455 25.5626 17.0858 25.5471 17.026ZM25.6927 17.7409L25.716 17.735C25.7261 17.7966 25.7344 17.8583 25.7428 17.92L25.7199 17.9232C25.7122 17.8623 25.7019 17.8017 25.6927 17.7409ZM24.2755 23.3074C24.3888 23.1638 24.4967 23.0172 24.5977 22.8666L34.0969 29.8693L33.7731 30.3077L24.2755 23.3074ZM12.7843 1.10614L13.3014 0.937681L16.8888 11.9158C16.7137 11.9605 16.5396 12.011 16.3671 12.0695L12.7843 1.10614ZM25.7728 18.648C25.7714 18.5869 25.7683 18.5259 25.7653 18.4648L25.7953 18.4614C25.7989 18.5235 25.803 18.5856 25.805 18.6478L25.7728 18.648ZM25.752 19.3739C25.7568 19.3132 25.76 19.2525 25.7633 19.1917L25.8012 19.191C25.7985 19.2533 25.7963 19.3156 25.7919 19.3777L25.752 19.3739ZM25.6571 20.0952C25.668 20.0354 25.6788 19.9756 25.6882 19.9156L25.7317 19.9193C25.7226 19.981 25.7138 20.0428 25.7032 20.1043L25.6571 20.0952ZM25.4811 20.8325C25.5013 20.764 25.5222 20.6958 25.5404 20.6267L25.5898 20.637C25.5719 20.7079 25.5524 20.7783 25.5323 20.8487L25.4811 20.8325ZM23.8932 23.7564C24.0179 23.6229 24.1351 23.4839 24.248 23.3427L33.0421 31.231L32.6775 31.6361L23.8932 23.7564ZM10.8586 1.77494L11.3566 1.55292L16.1028 12.165C15.9338 12.23 15.7669 12.3023 15.6016 12.3809L10.8586 1.77494ZM25.3089 21.3486L25.3653 21.367C25.3434 21.4264 25.3183 21.4847 25.2948 21.5436L25.2406 21.5199C25.2639 21.463 25.2871 21.406 25.3089 21.3486ZM25.0159 22.0147L25.0759 22.0414C25.0464 22.1013 25.0146 22.1601 24.9834 22.2193L24.9265 22.1868C24.9571 22.1297 24.9869 22.0724 25.0159 22.0147ZM24.65 22.6561L24.7114 22.6915C24.6744 22.7503 24.6365 22.8087 24.5977 22.8666L24.5408 22.8256C24.5787 22.77 24.6138 22.7127 24.65 22.6561ZM23.3465 24.2812C23.4846 24.1617 23.6165 24.0373 23.7433 23.9094L31.8353 32.8636L31.4312 33.2286L23.3465 24.2812ZM9.13428 2.80044L9.60431 2.52759L15.3782 12.4916C15.2186 12.5745 15.0617 12.6646 14.9067 12.7607L9.13428 2.80044ZM24.215 23.2631L24.2755 23.3074C24.2663 23.3191 24.2573 23.331 24.248 23.3427L24.1913 23.292C24.1992 23.2823 24.2072 23.2728 24.215 23.2631ZM23.8335 23.7031L23.8932 23.7564C23.8446 23.8085 23.7937 23.8586 23.7433 23.9094L23.6893 23.8508C23.7381 23.8021 23.7863 23.753 23.8335 23.7031ZM23.2902 24.2193L23.3465 24.2812C23.2833 24.3359 23.2188 24.3895 23.1532 24.4423L23.1043 24.3741C23.1675 24.3235 23.2292 24.2716 23.2902 24.2193ZM22.8247 24.6931C22.9375 24.6124 23.0466 24.5283 23.1532 24.4423L30.0107 34.0209L29.5676 34.3382L22.7158 24.7675C22.7519 24.7427 22.789 24.7187 22.8247 24.6931ZM8.09097 3.40324L14.8251 12.8095C14.7179 12.878 14.6114 12.9493 14.5068 13.0242C14.463 13.0556 14.4209 13.089 14.378 13.1212L7.64789 3.72045L8.09097 3.40324ZM22.5139 24.7992C22.5649 24.7662 22.6148 24.7313 22.6652 24.6968L22.7158 24.7675C22.6634 24.8036 22.6118 24.8406 22.5587 24.8752L22.5139 24.7992ZM22.0907 25.1526C22.2487 25.066 22.4055 24.9749 22.5587 24.8752L28.4894 35.1053L28.018 35.3779L22.0907 25.1526ZM6.59047 4.92425L14.1536 13.2975C14.0119 13.4128 13.8756 13.5322 13.7449 13.6561L6.18638 5.28921L6.59047 4.92425ZM21.9101 25.1485C21.9555 25.1251 22.0003 25.1002 22.0454 25.0757L22.0907 25.1526C22.0429 25.1788 21.9953 25.2052 21.947 25.2302L21.9101 25.1485ZM21.4536 25.4621C21.62 25.3915 21.7846 25.3145 21.947 25.2302L26.7312 35.9257L26.2345 36.1479L21.4536 25.4621ZM5.01477 6.08355L13.6048 13.7925C13.4755 13.9221 13.3522 14.0556 13.2347 14.1932L4.65103 6.48809L5.01477 6.08355ZM21.3036 25.4254C21.3412 25.4103 21.3788 25.3954 21.4162 25.3796L21.4536 25.4621C21.4133 25.4793 21.3731 25.4964 21.3326 25.5128L21.3036 25.4254ZM20.8206 25.6968C20.9928 25.6423 21.1635 25.581 21.3326 25.5128L24.9994 36.7295L24.4823 36.8979L20.8206 25.6968ZM3.78801 7.5239L13.0821 14.3793C12.9685 14.5217 12.8598 14.6669 12.7584 14.8164L3.46494 7.96176L3.78801 7.5239ZM20.6164 25.6616C20.6748 25.6448 20.7329 25.6269 20.7911 25.6086L20.8206 25.6968C20.7594 25.7161 20.698 25.7341 20.6365 25.7517L20.6164 25.6616ZM20.1075 25.8818C20.2849 25.8454 20.4612 25.802 20.6365 25.7517L23.0708 37.1038L22.5388 37.218L20.1075 25.8818ZM2.68983 9.13881L12.6494 14.9845C12.5516 15.1379 12.4589 15.2938 12.3737 15.4533L2.41413 9.60762L2.68983 9.13881ZM19.8092 25.8443C19.9022 25.8291 19.9948 25.8107 20.0874 25.7917L20.1075 25.8818C20.0116 25.9015 19.9156 25.9199 19.8193 25.9356L19.8092 25.8443ZM19.2798 26.0024C19.46 25.987 19.64 25.9648 19.8193 25.9356L21.0555 37.4981L20.5146 37.5562L19.2798 26.0024ZM1.87188 10.917L12.2777 15.6397C12.1968 15.8025 12.1235 15.9684 12.0556 16.1363L1.64639 11.4123L1.87188 10.917ZM19.1105 25.9218C19.1635 25.9185 19.2167 25.9157 19.2697 25.9111L19.2798 26.0024C19.2234 26.0072 19.167 26.0108 19.1106 26.0142L19.1105 25.9218ZM18.5666 26.0278C18.7478 26.0305 18.9292 26.0253 19.1106 26.0142L19.1312 37.6554L18.5865 37.6563L18.5666 26.0278ZM1.08438 12.7143L11.9751 16.3392C11.912 16.5098 11.8565 16.6828 11.8067 16.8573L0.912727 13.2311L1.08438 12.7143ZM18.4122 25.9329C18.4635 25.9347 18.5149 25.9361 18.5662 25.9367L18.5666 26.0278C18.512 26.027 18.4575 26.0244 18.403 26.0224L18.4122 25.9329ZM17.8594 25.9828C18.0398 26.0034 18.2212 26.0155 18.403 26.0224L17.2114 37.549L16.6699 37.4922L17.8594 25.9828ZM0.499919 14.5619L11.7564 17.0386C11.7111 17.2147 11.6733 17.3924 11.6416 17.5712L0.383223 15.0934L0.499919 14.5619ZM17.6979 25.8714C17.7548 25.8791 17.8116 25.887 17.8686 25.8933L17.8594 25.9828C17.7992 25.9759 17.7394 25.9663 17.6794 25.9579L17.6979 25.8714ZM17.1427 25.8641C17.3202 25.9029 17.4995 25.9327 17.6794 25.9579L15.2869 37.3102L14.7547 37.1976L17.1427 25.8641ZM0.149636 16.5001L11.6073 17.7867C11.581 17.9667 11.5602 18.1474 11.5476 18.3291L0.0893721 17.0417L0.149636 16.5001ZM16.975 25.7356C17.0367 25.7505 17.0982 25.7663 17.1602 25.7795L17.1427 25.8641C17.0778 25.85 17.0133 25.834 16.9487 25.818L16.975 25.7356ZM16.4256 25.6677C16.5981 25.7246 16.7727 25.7745 16.9487 25.818L13.4679 36.925L12.9481 36.7627L16.4256 25.6677ZM11.545 18.379C11.5415 18.4357 11.5392 18.4924 11.5371 18.5492L11.5344 18.5487C11.5371 18.4921 11.5409 18.4355 11.545 18.379ZM0.00327077 18.4665L11.5344 18.5487C11.5257 18.7295 11.5219 18.9107 11.527 19.0921L-1.5829e-06 19.0105L0.00327077 18.4665ZM16.1929 25.5004C16.2782 25.5317 16.3643 25.5606 16.4506 25.5886L16.4256 25.6677C16.3364 25.6383 16.2477 25.6076 16.1596 25.5747L16.1929 25.5004ZM11.527 19.0921L11.5368 19.0923C11.5395 19.1654 11.5423 19.2386 11.5473 19.3117L11.5389 19.3117C11.5346 19.2385 11.529 19.1653 11.527 19.0921ZM15.6591 25.3637C15.8237 25.44 15.9903 25.5114 16.1596 25.5747L11.4523 36.1966L10.9547 35.9763L15.6591 25.3637ZM0.0656782 20.436L11.5389 19.3117C11.5496 19.4929 11.5666 19.6739 11.5912 19.8544L0.118711 20.9781L0.0656782 20.436ZM15.4493 25.1764C15.5291 25.2165 15.6095 25.255 15.6906 25.2919L15.6591 25.3637C15.5755 25.325 15.4926 25.2848 15.4103 25.2428L15.4493 25.1764ZM11.5912 19.8544L11.6074 19.8536C11.618 19.9257 11.6281 19.9979 11.6409 20.0698L11.6236 20.0726C11.6115 20 11.6011 19.9272 11.5912 19.8544ZM14.9341 24.9784C15.0894 25.0735 15.2491 25.1603 15.4103 25.2428L9.5394 35.2492L9.06923 34.9733L14.9341 24.9784ZM0.333204 22.3883L11.6236 20.0726C11.6535 20.2508 11.6907 20.4282 11.7343 20.6046L0.442307 22.9215L0.333204 22.3883ZM14.7984 24.8041C14.8561 24.8412 14.9134 24.8787 14.972 24.914L14.9341 24.9784C14.8736 24.9414 14.8146 24.9016 14.7551 24.8627L14.7984 24.8041ZM11.7343 20.6046L11.7581 20.6009C11.7762 20.671 11.7954 20.7409 11.8157 20.8106L11.79 20.8182C11.77 20.7473 11.752 20.676 11.7343 20.6046ZM14.3105 24.5469C14.4551 24.6584 14.6035 24.7635 14.7551 24.8627L7.87832 34.1889L7.43989 33.865L14.3105 24.5469ZM0.80083 24.303L11.79 20.8182C11.8389 20.9924 11.8963 21.1648 11.959 21.3362L0.965544 24.8216L0.80083 24.303ZM14.1789 24.3564C14.2358 24.4025 14.292 24.4492 14.3501 24.4933L14.3105 24.5469C14.2508 24.501 14.1921 24.4537 14.1337 24.4057L14.1789 24.3564ZM11.959 21.3362L11.9877 21.3276C12.0131 21.3949 12.0403 21.4617 12.0678 21.5285L12.0371 21.5409C12.0098 21.4729 11.984 21.4047 11.959 21.3362ZM13.7267 24.0436C13.8585 24.1701 13.9941 24.2909 14.1337 24.4057L6.31308 32.9387L5.91137 32.5705L13.7267 24.0436ZM1.46808 26.1577L12.0371 21.5409C12.1043 21.7084 12.1778 21.8744 12.2585 22.0381L1.68579 26.6564L1.46808 26.1577ZM13.6286 23.8629C13.6748 23.909 13.7211 23.9548 13.7684 23.9994L13.7267 24.0436C13.6784 23.9972 13.63 23.9508 13.5828 23.9029L13.6286 23.8629ZM12.2585 22.0381L12.2925 22.0234C12.3247 22.0871 12.3599 22.1494 12.3942 22.2124L12.3588 22.2318C12.3245 22.1674 12.2906 22.1031 12.2585 22.0381ZM13.2164 23.4986C13.3346 23.6386 13.456 23.7741 13.5828 23.9029L4.93003 31.5772L4.56904 31.1703L13.2164 23.4986ZM13.1178 23.2954C13.1637 23.3522 13.21 23.4083 13.2573 23.4633L13.2164 23.4986C13.1686 23.4419 13.1197 23.3857 13.0733 23.3272L13.1178 23.2954ZM2.32539 27.934L12.3588 22.2318C12.4433 22.3907 12.5331 22.5481 12.6308 22.7024L2.59484 28.4077L2.32539 27.934ZM12.6308 22.7024L12.671 22.6796C12.71 22.7399 12.7508 22.7991 12.7919 22.8585L12.7529 22.8864C12.7115 22.8252 12.6701 22.7644 12.6308 22.7024ZM12.7529 22.8864C12.7884 22.9388 12.8228 22.9923 12.8598 23.0441C12.929 23.1407 13.0003 23.235 13.0733 23.3272L3.67974 30.0522L3.36253 29.6091L12.7529 22.8864Z" fill="#3B1314"/>
</svg>
